<svg height="32" viewBox="0 0 32 32" width="32" xmlns="http://www.w3.org/2000/svg"><path d="m24 26h2v2h-2z" transform="matrix(0 -1 1 0 -2 52)"/><path d="m18 22h2v2h-2z" transform="matrix(0 -1 1 0 -4 42)"/><path d="m18 30h4v-2h-2v-2h-2z"/><path d="m24.9999 23h4v2h-4z" transform="matrix(0 -1 1 0 2.9999 50.9999)"/><path d="m28 26h2v4h-4v-2h2z"/><path d="m26 20v-2h4v4h-2v-2z"/><path d="m24 20h-2v4h-2v2h4z"/><path d="m19 17h2v4h-2z" transform="matrix(0 -1 1 0 1 39)"/><path d="m6 22h4v4h-4z"/><path d="m14 30h-12v-12h12zm-10-2h8v-8h-8z"/><path d="m22 6h4v4h-4z"/><path d="m30 14h-12v-12h12zm-10-2h8v-8h-8z"/><path d="m6 6h4v4h-4z"/><path d="m14 14h-12v-12h12zm-10-2h8v-8h-8z"/><path d="m0 0h32v32h-32z" fill="none"/></svg>